<svg width="202" height="200" viewBox="0 0 202 200" fill="none" xmlns="http://www.w3.org/2000/svg">
<circle cx="100" cy="100" r="100" fill="#F8EA6C"/>
<circle cx="100" cy="100" r="100" fill="#D6DADE"/>
<ellipse cx="99.5" cy="100" rx="91.5" ry="90" fill="#CADEEA"/>
<ellipse cx="99.5" cy="100" rx="91.5" ry="90" fill="#EDEDF1"/>
<path d="M96.3441 189.704C117.743 192.205 139.342 186 156.739 172.353C174.135 158.706 186.018 138.646 189.964 116.262C193.911 93.8788 189.624 70.8576 177.977 51.8931C166.331 32.9285 148.202 19.4488 127.287 14.2025L107.645 101.128L96.3441 189.704Z" fill="#CADEEA"/>
<path d="M96.3441 189.704C117.743 192.205 139.342 186 156.739 172.353C174.135 158.706 186.018 138.646 189.964 116.262C193.911 93.8788 189.624 70.8576 177.977 51.8931C166.331 32.9285 148.202 19.4488 127.287 14.2025L107.645 101.128L96.3441 189.704Z" fill="#E6E6EC"/>
<path d="M112.528 133.817L105.845 119.658H124.509C126.293 119.658 128.044 119.182 129.581 118.277L130.423 117.781C132.259 116.701 133.702 115.063 134.542 113.106L136.454 108.65C136.544 108.44 136.591 108.214 136.591 107.986V105.931C136.591 103.347 138.685 101.252 141.269 101.252H144.164C146.68 101.252 149.185 100.926 151.616 100.283L153.737 99.721C155.22 99.3285 156.633 98.7101 157.927 97.8877C160.977 95.9493 163.222 92.9711 164.244 89.5048L165.071 86.7033C165.687 84.6149 166 82.4488 166 80.2714V77.2455C166 74.8538 165.698 72.4716 165.102 70.1554C164.368 67.3067 163.197 64.589 161.63 62.0995L159.984 59.4851L157.576 56.6153C155.656 54.3282 153.126 52.6338 150.281 51.7296C148.738 51.2395 147.13 50.9901 145.511 50.9901H143.839C142.145 50.9901 140.472 51.3522 138.93 52.052L137.284 52.7993C136.827 53.0066 136.331 53.1139 135.83 53.1139C134.294 53.1139 132.935 52.1172 132.474 50.652L131.271 46.8293C131.253 46.7721 131.224 46.719 131.185 46.6733L125.392 39.8561C125.283 39.7281 125.159 39.6143 125.021 39.5174L119.549 35.6533C119.327 35.4966 119.075 35.3868 118.81 35.3305L112.528 34H103.839H61.0622L56.2208 35.2819C55.8892 35.3697 55.5857 35.5414 55.3396 35.7803L53.547 37.5207C49.8056 41.1532 47.6943 46.1456 47.6943 51.3603C47.6943 52.3288 48.4794 53.1139 49.4479 53.1139H49.6995L51.7047 55.2376V59.4851L49.6995 69.396L43.6839 83.5545L38.1968 96.34C37.6304 97.6598 38.5985 99.1287 40.0347 99.1287H47.6943V111.871V119.584C47.6943 123.138 49.5465 126.512 52.8271 127.877C53.8094 128.286 54.8123 128.645 55.715 128.861C60.0305 129.895 67.0777 128.861 67.0777 128.861L75.0984 127.446L80.4456 125.322L85.016 141.054C85.5312 142.828 85.7927 144.665 85.7927 146.512V147.764C85.7927 152.412 83.8549 156.85 80.4456 160.01L73.0933 167.089L70.4111 169.93C69.4483 170.95 69.8068 172.618 71.1037 173.152L75.1396 174.815C78.643 176.258 82.3952 177 86.1841 177H91.8083H105.801C108.491 177 111.167 176.626 113.753 175.888L124.305 172.88C126.252 172.324 128.135 171.567 129.924 170.619L134.486 168.204C135.584 167.622 135.892 166.19 135.129 165.209L127.233 155.054L119.212 143.728L112.528 133.817Z" fill="#9EAAB6"/>
<path d="M56.0482 110.685L58.8938 112.899L60.3166 114.006L58.8206 113.896L53.9072 112.533L52.6808 112.443C52.1733 112.406 51.6634 112.466 51.1783 112.62L49.3461 113.201L47.3515 113.055C46.7996 112.416 46.7187 111.495 47.1506 110.769L47.571 110.063C48.2626 109.174 49.3527 108.69 50.476 108.772L51.752 108.866C52.0275 108.886 52.2971 108.956 52.548 109.071L56.0482 110.685Z" fill="#52616C"/>
<path d="M55.789 115.324L58.7796 114.429L60.2749 113.982L58.932 113.701L54.8627 111.175L53.6556 111.585C53.3166 111.701 52.9636 111.77 52.6062 111.791L50.4269 111.922L48.6363 111.547C47.7432 111.825 47.262 112.791 47.5782 113.672L47.5887 113.701C48.4077 114.555 49.4655 115.141 50.6236 115.384L51.4727 115.561C51.8086 115.632 52.1531 115.652 52.4948 115.621L55.789 115.324Z" fill="#52616C"/>
<path d="M112.043 88.7962L81.7534 60.006L84.9418 58.4498L116.779 88.7521C116.809 88.7802 116.825 88.8193 116.825 88.8602C116.825 89.6843 116.157 90.3524 115.333 90.3524H114.434L112.043 88.7962Z" fill="#9EB3C0"/>
<path d="M69 49.8906V46H72.9044C75.0287 46 77.0978 46.6765 78.8118 47.9314L79.3621 48.3343L82.5505 50.6687L84.3406 52.4161C85.7712 53.8127 86.7504 55.6061 87.1517 57.5648L87.333 58.4498V63.1185L82.6227 62.5437C81.5195 62.4091 80.4464 62.0915 79.4476 61.604L77.768 60.7841L72.9854 57.6717L70.6119 54.7753C70.073 54.1179 69.6564 53.3691 69.3817 52.5647C69.129 51.8245 69 51.0477 69 50.2655V49.8906Z" fill="#C5F6EF"/>
<path d="M71.3847 72.0221L69.0303 68.883L72.1223 66.6729C73.8729 65.4217 75.9933 64.7591 78.1684 64.7835L78.8036 64.7907L82.7888 64.8354L85.3186 65.2173C87.3007 65.5164 89.1512 66.3844 90.6354 67.711L91.3564 68.3555L94.1817 72.1225L90.0662 74.3573C89.0731 74.8966 87.9928 75.2671 86.8709 75.4533L85.0515 75.7551L79.3092 76.0019L75.6518 75.0366C74.8121 74.815 74.0183 74.4494 73.3074 73.9571C72.6577 73.5072 72.0863 72.9576 71.6154 72.3297L71.3847 72.0221Z" fill="#7DDAFB"/>
<path d="M89.3826 49.2428L91.5846 46L94.7864 48.072C96.59 49.2391 97.957 50.9476 98.685 52.9444L98.9002 53.5347L100.236 57.2001L100.744 59.6458C101.143 61.5668 100.949 63.5655 100.186 65.3877L99.8185 66.2652L97.176 70.1565L93.6002 67.1577C92.7405 66.4368 92.0125 65.5778 91.4467 64.617L90.5248 63.0517L88.3003 57.8779L87.9621 54.1928C87.8846 53.348 87.9611 52.4951 88.1882 51.6739C88.3958 50.9229 88.7265 50.2089 89.1672 49.5599L89.3826 49.2428Z" fill="#77BDF2"/>
<path d="M84.137 82.6256L81.8955 79.4086L85.0699 77.3009C86.8604 76.112 88.999 75.5229 91.1689 75.6209L91.8084 75.6497L95.7896 75.8294L98.3018 76.2962C100.274 76.6626 102.094 77.5942 103.533 78.9724L104.227 79.6376L106.917 83.4979L102.721 85.5936C101.712 86.0979 100.621 86.431 99.495 86.5787L97.6629 86.8192L91.9153 86.8713L88.2934 85.7825C87.4628 85.5327 86.6829 85.1407 85.9901 84.6247C85.3566 84.1529 84.8048 83.5841 84.3563 82.9404L84.137 82.6256Z" fill="#7FBBF0"/>
<path d="M103.441 59.854L106.027 56.8936L108.932 59.3114C110.59 60.6917 111.745 62.5605 112.223 64.6387L112.36 65.2333L113.235 69.029L113.438 71.5259C113.597 73.474 113.16 75.4265 112.183 77.1363L111.702 77.9791L108.599 81.5315L105.427 78.1434C104.657 77.3207 104.036 76.3759 103.59 75.3492L102.872 73.6967L101.302 68.2991L101.421 64.6046C101.448 63.7544 101.629 62.9151 101.956 62.1257C102.255 61.4054 102.67 60.7365 103.187 60.1451L103.441 59.854Z" fill="#80DDFE"/>
<path d="M57 76.693V84L62 81L65.823 78.7062C66.4046 78.3572 66.4775 77.5428 65.967 77.0961L63.5655 74.9948C63.201 74.6758 62.733 74.5 62.2485 74.5H61L57.6489 75.7567C57.2586 75.903 57 76.2762 57 76.693Z" fill="#52616C"/>
</svg>
