<svg width="202" height="200" viewBox="0 0 202 200" fill="none" xmlns="http://www.w3.org/2000/svg">
<circle cx="100" cy="100" r="100" fill="#F8EA6C"/>
<circle cx="100" cy="100" r="100" fill="#D6DADE"/>
<ellipse cx="99.5" cy="100" rx="91.5" ry="90" fill="#CADEEA"/>
<ellipse cx="99.5" cy="100" rx="91.5" ry="90" fill="#E6E6EC"/>
<path d="M96.3441 189.704C117.743 192.205 139.342 186 156.739 172.353C174.135 158.706 186.018 138.646 189.964 116.262C193.911 93.8788 189.624 70.8576 177.977 51.8931C166.331 32.9285 148.202 19.4488 127.287 14.2025L107.645 101.128L96.3441 189.704Z" fill="#CADEEA"/>
<path d="M96.3441 189.704C117.743 192.205 139.342 186 156.739 172.353C174.135 158.706 186.018 138.646 189.964 116.262C193.911 93.8788 189.624 70.8576 177.977 51.8931C166.331 32.9285 148.202 19.4488 127.287 14.2025L107.645 101.128L96.3441 189.704Z" fill="#EDEDF1"/>
<g clip-path="url(#clip0)">
<path d="M70.7413 74.862C70.7413 88.7454 82.2739 100 96.5 100C110.726 100 122.259 88.7454 122.259 74.862C122.259 60.8965 115.104 49.724 119.904 39.9482C119.904 39.9482 112.241 41.3448 107.948 52.5171C107.948 52.5171 93.638 38.5515 99.6169 18.9998C99.6169 18.9998 85.0518 24.586 86.575 42.7412C87.8813 58.3094 85.0518 60.8965 85.0518 60.8965C85.0518 48.3275 74.9824 42.7412 74.9824 42.7412C77.8965 58.1034 70.7413 62.2931 70.7413 74.862Z" fill="#7FBBF0"/>
<path d="M115.093 80.8153C115.093 91.2715 106.82 100.198 96.108 99.996C86.0268 99.8065 78.5261 92.321 79.3278 82.5429C79.6855 78.1787 83.0842 71.1086 88.6294 63.9514L92.3263 66.1335C92.2069 57.2888 96.5 45.5345 96.5 45.5345C99.3201 57.9191 115.093 61.1292 115.093 80.8153Z" fill="#80DDFE"/>
<path d="M89.3448 72.0689C87.9137 80.4483 85.0517 83.4989 85.0517 88.8275C85.0517 94.4138 90.1774 100 96.5 100C102.868 100 107.966 94.9222 107.948 88.7073C107.9 72.0156 97.9311 63.6897 97.9311 63.6897C99.3622 72.0691 95.0691 76.2586 95.0691 76.2586C93.2807 73.641 89.3448 72.0689 89.3448 72.0689Z" fill="#C5F6EF"/>
</g>
<path d="M123.577 161.933C111.401 156.687 69.4432 159.625 71.2261 161.933C70.5713 165.196 71.3649 171.889 73.2661 172H122.349C124.55 168.222 124.085 163.715 123.577 161.933Z" fill="#9EAAB6"/>
<path d="M33.0988 96.5235C37.6635 86.4125 54.118 91.7118 59.4816 93.8786L59.9436 104.106C51.3837 100.796 37.9443 100.543 44.351 123.595C50.7577 146.648 59.8434 139.41 60.4798 139.41C60.989 139.41 66.4395 133.002 69.1011 129.798C70.3151 131.093 72.6487 133.67 72.2708 133.619C71.7986 133.556 59.6379 148.804 58.9295 149.701C58.3628 150.42 55.7379 150.001 54.4964 149.701C45.0413 145.799 27.4355 109.068 33.0988 96.5235Z" fill="#9EAAB6"/>
<path d="M161.547 96.5236C156.982 86.4125 140.651 91.6311 135.287 93.798L135.129 104.24C143.689 100.929 156.701 100.543 150.295 123.595C143.888 146.648 134.802 139.41 134.166 139.41C133.656 139.41 128.206 133.002 125.544 129.798C124.33 131.093 121.997 133.67 122.375 133.619C122.847 133.556 135.008 148.804 135.716 149.702C136.283 150.42 138.907 150.001 140.149 149.702C149.604 145.799 167.21 109.068 161.547 96.5236Z" fill="#9EAAB6"/>
<path d="M80.223 139.755C62.3083 130.63 58.9349 105.236 59.4876 93.68H135.348C136.759 114.336 127.213 129.188 122.262 134.032C115.714 139.742 98.1374 148.881 80.223 139.755Z" fill="#9EAAB6"/>
<path d="M84.1152 160.864C84.0651 151.672 80.5162 142.209 78.8236 138.849C93.3455 146.687 109.044 142.209 114.988 138.831C113.834 140.767 111.763 154.369 110.885 160.864C101.004 158.983 88.9215 160.08 84.1152 160.864Z" fill="#9EAAB6"/>
<path d="M59.509 94.1914H135.412V89H59.509V94.1914Z" fill="#52616C"/>
<path d="M59.6566 94.3157C59.5283 93.3767 59.3488 91.3613 59.6566 90.8116C69.0585 91.43 88.4265 92.9965 90.6834 94.3157H59.6566Z" fill="#52616C"/>
<path d="M100.362 137.544C103.18 135.297 75.217 108.75 60.8834 95.7577C63.2493 129.699 80.8078 136.611 88.8795 139.788L88.9771 139.827C95.3985 142.355 99.243 139.359 100.362 137.544Z" fill="#D6DADE"/>
<path d="M138.423 93.7869C138.371 93.8039 138.32 93.8208 138.269 93.8377C138.296 93.8172 138.348 93.8004 138.423 93.7869C143.024 92.2763 152.788 89.9743 156.259 92.4856C160.495 95.5497 140.508 93.4107 138.423 93.7869Z" fill="#9EAAB6"/>
<path d="M54.5767 92.5201C54.6195 92.5323 54.6617 92.5444 54.7032 92.5565C54.6813 92.5419 54.6386 92.5298 54.5767 92.5201C50.7901 91.4399 42.7554 89.7937 39.8989 91.5896C36.4137 93.7808 52.8605 92.2511 54.5767 92.5201Z" fill="#9EAAB6"/>
<path d="M57.6176 103.288C55.7528 101.554 56.8734 95.9648 57.6505 93.4493L59.1091 94.006L59.1376 103.839L57.6176 103.288Z" fill="#52616C"/>
<path d="M58.8408 149.752C58.3409 150.215 55.9474 150.215 54.2289 149.585L53.389 149.143L52.3165 148.366L51.5104 147.663L50.7239 146.899L60.1094 148.212L58.8408 149.752Z" fill="#52616C"/>
<path d="M152.036 130.873C153.923 128.851 160.573 104.637 158.572 96.0566C161.744 97.2823 161.834 102.67 161.744 105.536C159.365 122.436 154.281 129.469 152.036 130.873Z" fill="#9EAAB6"/>
<path d="M49.2785 136.016C48.4484 134.552 35.805 109.861 47.2327 103.15C43.1135 100.603 38.6088 108.569 38.6979 111.435C38.6979 129.054 46.6789 134.625 49.2785 136.016Z" fill="#52616C"/>
<path d="M90.9919 159.25C91.2601 159.25 84.7882 144.77 80 141L81.8282 145.708L83.2225 150.512L84.0725 155.278L84.4331 160C86.2923 159.575 90.6339 159.25 90.9919 159.25Z" fill="#52616C"/>
<path d="M114.527 139.511C114.536 139.506 114.545 139.503 114.55 139.503C114.542 139.505 114.535 139.508 114.527 139.511C113.955 139.782 106.36 146.538 100.85 146.845C97.764 147.016 91.3496 144.55 85.935 142.414C83.8798 141.826 81.7607 141.033 79.5929 139.992C81.2329 140.547 83.4813 141.447 85.935 142.414C100.525 146.59 111.891 140.444 114.527 139.511Z" fill="#52616C"/>
<defs>
<clipPath id="clip0">
<rect width="83" height="81" fill="white" transform="translate(55 19)"/>
</clipPath>
</defs>
</svg>
